<svg id="Layer_1" enable-background="new 0 0 512 512" height="512" viewBox="0 0 512 512" width="512" xmlns="http://www.w3.org/2000/svg"><g><g fill="#43809f"><circle cx="105.5" cy="25.5" r="18"/><circle cx="275.5" cy="25.5" r="18"/></g><path d="m390.5 213.538v168.462c0 51.005-41.495 92.5-92.5 92.5s-92.5-41.495-92.5-92.5v-153.462h-30v153.462c0 67.547 54.953 122.5 122.5 122.5s122.5-54.953 122.5-122.5v-168.462z" fill="#43809f"/><g fill="#f3f3f3"><path d="m293.5 25.5c-8.284 0-15 6.716-15 15v77c0 48.523-39.477 88-88 88s-88-39.477-88-88v-77c0-8.284-6.716-15-15-15s-15 6.716-15 15v77c0 65.065 52.935 118 118 118s118-52.935 118-118v-77c0-8.284-6.716-15-15-15z"/><path d="m308.5 40.5v77c0 48.85-29.83 90.86-72.24 108.76-14.07 5.95-29.54 9.24-45.76 9.24s-31.69-3.29-45.76-9.24c-42.41-17.9-72.24-59.91-72.24-108.76v-77c0-8.28 6.72-15 15-15s15 6.72 15 15v77c0 31.77 16.93 59.67 42.24 75.14 13.34 8.16 29.01 12.86 45.76 12.86s32.42-4.7 45.76-12.86c25.31-15.47 42.24-43.37 42.24-75.14v-77c0-8.28 6.72-15 15-15s15 6.72 15 15z"/><path d="m390.5 213.538h30v73h-30z"/></g><circle cx="405.5" cy="190" fill="#bbf7ff" r="34"/><path d="m405.5 156c-5.385 0-10.475 1.257-15 3.486 11.254 5.542 19 17.122 19 30.514s-7.746 24.972-19 30.514c4.525 2.229 9.615 3.486 15 3.486 18.778 0 34-15.222 34-34s-15.222-34-34-34z" fill="#8bf0ff"/><path d="m190.5 253c-18.778 0-34-15.222-34-34v-13c0-8.284 6.716-15 15-15h38c8.284 0 15 6.716 15 15v13c0 18.778-15.222 34-34 34z" fill="#e4e4e4"/><path d="m209.5 191h-30c8.284 0 15 6.716 15 15v13c0 13.393-7.746 24.972-19 30.514 4.525 2.229 9.615 3.486 15 3.486 18.778 0 34-15.222 34-34v-13c0-8.284-6.716-15-15-15z" fill="#d2d2d2"/><path d="m447 190c0-22.883-18.617-41.5-41.5-41.5s-41.5 18.617-41.5 41.5c0 14.593 7.579 27.442 19 34.843v157.157c0 46.869-38.131 85-85 85s-85-38.131-85-85v-128.157c6.261-4.057 11.365-9.75 14.7-16.474 14.56-4.52 28.053-11.604 40.15-21.096 3.259-2.558 3.827-7.271 1.271-10.53-2.558-3.26-7.273-3.826-10.53-1.271-8.191 6.427-17.107 11.595-26.613 15.451.005-.308.022-.613.022-.923v-13c0-.823-.047-1.635-.134-2.436 14.917-7.178 27.69-18.081 37.21-31.835 11.071-15.997 16.924-34.75 16.924-54.229v-77c0-4.136 3.364-7.5 7.5-7.5s7.5 3.364 7.5 7.5v77c0 23.496-7.308 45.945-21.132 64.921-2.439 3.348-1.703 8.039 1.646 10.478 3.349 2.44 8.038 1.704 10.478-1.646 15.706-21.558 24.008-47.062 24.008-73.753v-77c0-10.089-6.675-18.648-15.841-21.494-2.879-10.925-12.842-19.006-24.659-19.006-14.061 0-25.5 11.439-25.5 25.5 0 12.524 9.079 22.962 21 25.094v66.906c0 31.281-17.739 59.171-45.645 72.552-4.071-4.047-9.675-6.552-15.855-6.552h-38c-6.18 0-11.784 2.505-15.855 6.552-27.906-13.381-45.645-41.271-45.645-72.552v-66.906c11.921-2.132 21-12.57 21-25.094 0-14.061-11.439-25.5-25.5-25.5-11.817 0-21.78 8.081-24.659 19.006-9.166 2.846-15.841 11.405-15.841 21.494v23.18c0 4.143 3.357 7.5 7.5 7.5s7.5-3.357 7.5-7.5v-23.18c0-4.136 3.364-7.5 7.5-7.5s7.5 3.364 7.5 7.5v77c0 19.479 5.853 38.232 16.924 54.229 9.52 13.754 22.294 24.656 37.21 31.835-.087.801-.134 1.613-.134 2.436v13c0 .304.016.604.023.906-41.184-16.732-69.023-57.215-69.023-102.406v-21.728c0-4.143-3.357-7.5-7.5-7.5s-7.5 3.357-7.5 7.5v21.728c0 54.868 36.131 103.625 88.288 119.845 3.334 6.735 8.443 12.436 14.712 16.499v128.156c0 71.683 58.317 130 130 130s130-58.317 130-130v-30.32c0-4.143-3.357-7.5-7.5-7.5s-7.5 3.357-7.5 7.5v30.32c0 63.411-51.589 115-115 115s-115-51.589-115-115v-122.192c2.435.447 4.938.692 7.5.692s5.065-.245 7.5-.692v122.192c0 55.141 44.859 100 100 100s100-44.859 100-100v-87.96h15v25.407c0 4.143 3.357 7.5 7.5 7.5s7.5-3.357 7.5-7.5v-94.604c11.421-7.401 19-20.25 19-34.843zm-182-164.5c0-5.79 4.71-10.5 10.5-10.5 3.745 0 7.029 1.977 8.888 4.935-6.324 2.813-11.117 8.457-12.763 15.315-3.876-1.546-6.625-5.329-6.625-9.75zm-159.5-10.5c5.79 0 10.5 4.71 10.5 10.5 0 4.421-2.749 8.204-6.625 9.75-1.646-6.858-6.439-12.502-12.763-15.315 1.859-2.958 5.143-4.935 8.888-4.935zm58.5 204v-13c0-4.136 3.364-7.5 7.5-7.5h38c4.136 0 7.5 3.364 7.5 7.5v13c0 14.612-11.888 26.5-26.5 26.5s-26.5-11.888-26.5-26.5zm249 60.04h-15v-48.232c2.435.447 4.938.692 7.5.692s5.065-.245 7.5-.692zm-7.5-62.54c-14.612 0-26.5-11.888-26.5-26.5s11.888-26.5 26.5-26.5 26.5 11.888 26.5 26.5-11.888 26.5-26.5 26.5z"/></g></svg>